HIERARCHY
ROOT mixamorig:Hips
{
	OFFSET 0.000000 35.069874 -0.029489
	CHANNELS 6 Xposition Yposition Zposition Xrotation Yrotation Zrotation
	JOINT mixamorig:Spine
	{
		OFFSET 0.000000 6.876060 0.125662
		CHANNELS 3 Xrotation Yrotation Zrotation
		JOINT mixamorig:Spine1
		{
			OFFSET 0.000000 8.022060 0.146603
			CHANNELS 3 Xrotation Yrotation Zrotation
			JOINT mixamorig:Spine2
			{
				OFFSET 0.000000 9.168079 0.167547
				CHANNELS 3 Xrotation Yrotation Zrotation
				JOINT mixamorig:Neck
				{
					OFFSET 0.000000 10.314075 0.188489
					CHANNELS 3 Xrotation Yrotation Zrotation
					JOINT mixamorig:Head
					{
						OFFSET 0.000000 7.643753 -2.377445
						CHANNELS 3 Xrotation Yrotation Zrotation
						JOINT mixamorig:HeadTop_End
						{
							OFFSET 0.000000 43.788605 -13.619637
							CHANNELS 3 Xrotation Yrotation Zrotation
							End Site
							{
								OFFSET 0.000000 45.857788 0.000000
							}
						}
					}
				}
				JOINT mixamorig:LeftShoulder
				{
					OFFSET 4.392187 8.825001 0.174995
					CHANNELS 3 Xrotation Yrotation Zrotation
					JOINT mixamorig:LeftArm
					{
						OFFSET 8.774866 -2.970879 -0.026997
						CHANNELS 3 Xrotation Yrotation Zrotation
						JOINT mixamorig:LeftForeArm
						{
							OFFSET 8.450586 -0.797432 -0.648343
							CHANNELS 3 Xrotation Yrotation Zrotation
							JOINT mixamorig:LeftHand
							{
								OFFSET 18.458662 0.962311 0.193148
								CHANNELS 3 Xrotation Yrotation Zrotation
								JOINT mixamorig:LeftHandThumb1
								{
									OFFSET 2.379990 -1.333382 2.680594
									CHANNELS 3 Xrotation Yrotation Zrotation
									JOINT mixamorig:LeftHandThumb2
									{
										OFFSET 1.903984 -1.066746 2.144473
										CHANNELS 3 Xrotation Yrotation Zrotation
										JOINT mixamorig:LeftHandThumb3
										{
											OFFSET 0.966393 -1.489639 2.964555
											CHANNELS 3 Xrotation Yrotation Zrotation
											JOINT mixamorig:LeftHandThumb4
											{
												OFFSET 1.205181 -0.823021 1.625701
												CHANNELS 3 Xrotation Yrotation Zrotation
												End Site
												{
													OFFSET 1.050617 -0.818157 1.731923
												}
											}
										}
									}
								}
								JOINT mixamorig:LeftHandIndex1
								{
									OFFSET 7.830624 -0.787468 2.563931
									CHANNELS 3 Xrotation Yrotation Zrotation
									JOINT mixamorig:LeftHandIndex2
									{
										OFFSET 3.312897 -0.052605 1.515312
										CHANNELS 3 Xrotation Yrotation Zrotation
										JOINT mixamorig:LeftHandIndex3
										{
											OFFSET 3.460667 -0.207008 1.581951
											CHANNELS 3 Xrotation Yrotation Zrotation
											JOINT mixamorig:LeftHandIndex4
											{
												OFFSET 2.183182 0.110458 0.999585
												CHANNELS 3 Xrotation Yrotation Zrotation
												End Site
												{
													OFFSET 2.183868 0.110451 0.998074
												}
											}
										}
									}
								}
								JOINT mixamorig:LeftHandMiddle1
								{
									OFFSET 8.556145 -0.261200 0.258753
									CHANNELS 3 Xrotation Yrotation Zrotation
									JOINT mixamorig:LeftHandMiddle2
									{
										OFFSET 3.828903 -0.489014 -0.111505
										CHANNELS 3 Xrotation Yrotation Zrotation
										JOINT mixamorig:LeftHandMiddle3
										{
											OFFSET 3.696209 -0.166595 -0.107596
											CHANNELS 3 Xrotation Yrotation Zrotation
											JOINT mixamorig:LeftHandMiddle4
											{
												OFFSET 2.259281 0.534500 -0.065675
												CHANNELS 3 Xrotation Yrotation Zrotation
												End Site
												{
													OFFSET 2.259735 0.534134 -0.051267
												}
											}
										}
									}
								}
								JOINT mixamorig:LeftHandRing1
								{
									OFFSET 8.509293 -0.556679 -3.044941
									CHANNELS 3 Xrotation Yrotation Zrotation
									JOINT mixamorig:LeftHandRing2
									{
										OFFSET 2.995171 -0.303261 -0.843591
										CHANNELS 3 Xrotation Yrotation Zrotation
										JOINT mixamorig:LeftHandRing3
										{
											OFFSET 2.968273 -0.101997 -0.834287
											CHANNELS 3 Xrotation Yrotation Zrotation
											JOINT mixamorig:LeftHandRing4
											{
												OFFSET 1.521358 -0.461468 -0.418735
												CHANNELS 3 Xrotation Yrotation Zrotation
												End Site
												{
													OFFSET 1.516514 -0.460747 -0.436712
												}
											}
										}
									}
								}
							}
						}
					}
				}
				JOINT mixamorig:RightShoulder
				{
					OFFSET -4.392150 8.825024 0.141388
					CHANNELS 3 Xrotation Yrotation Zrotation
					JOINT mixamorig:RightArm
					{
						OFFSET -8.774886 -2.970947 -0.094209
						CHANNELS 3 Xrotation Yrotation Zrotation
						JOINT mixamorig:RightForeArm
						{
							OFFSET -8.450586 -0.797386 -0.330665
							CHANNELS 3 Xrotation Yrotation Zrotation
							JOINT mixamorig:RightHand
							{
								OFFSET -18.458664 0.962341 0.025780
								CHANNELS 3 Xrotation Yrotation Zrotation
								JOINT mixamorig:RightHandThumb1
								{
									OFFSET -2.390282 -1.240040 2.604684
									CHANNELS 3 Xrotation Yrotation Zrotation
									JOINT mixamorig:RightHandThumb2
									{
										OFFSET -1.912228 -0.992111 2.083740
										CHANNELS 3 Xrotation Yrotation Zrotation
										JOINT mixamorig:RightHandThumb3
										{
											OFFSET -0.876358 -1.555370 2.930126
											CHANNELS 3 Xrotation Yrotation Zrotation
											JOINT mixamorig:RightHandThumb4
											{
												OFFSET -1.227077 -0.755932 1.835223
												CHANNELS 3 Xrotation Yrotation Zrotation
												End Site
												{
													OFFSET -1.124962 -0.750702 1.901603
												}
											}
										}
									}
								}
								JOINT mixamorig:RightHandIndex1
								{
									OFFSET -8.716801 -0.633743 3.098187
									CHANNELS 3 Xrotation Yrotation Zrotation
									JOINT mixamorig:RightHandIndex2
									{
										OFFSET -3.319706 -0.240585 1.198087
										CHANNELS 3 Xrotation Yrotation Zrotation
										JOINT mixamorig:RightHandIndex3
										{
											OFFSET -3.153255 -0.154724 1.138827
											CHANNELS 3 Xrotation Yrotation Zrotation
											JOINT mixamorig:RightHandIndex4
											{
												OFFSET -1.818684 -0.003197 0.655154
												CHANNELS 3 Xrotation Yrotation Zrotation
												End Site
												{
													OFFSET -1.818668 -0.003197 0.655188
												}
											}
										}
									}
								}
								JOINT mixamorig:RightHandMiddle1
								{
									OFFSET -8.158691 -0.528496 0.196552
									CHANNELS 3 Xrotation Yrotation Zrotation
									JOINT mixamorig:RightHandMiddle2
									{
										OFFSET -3.890194 -0.261169 -0.136423
										CHANNELS 3 Xrotation Yrotation Zrotation
										JOINT mixamorig:RightHandMiddle3
										{
											OFFSET -3.903057 -0.179909 -0.137173
											CHANNELS 3 Xrotation Yrotation Zrotation
											JOINT mixamorig:RightHandMiddle4
											{
												OFFSET -2.366261 0.198380 -0.083987
												CHANNELS 3 Xrotation Yrotation Zrotation
												End Site
												{
													OFFSET -2.366409 0.198326 -0.079799
												}
											}
										}
									}
								}
								JOINT mixamorig:RightHandRing1
								{
									OFFSET -7.616104 -0.395126 -2.681268
									CHANNELS 3 Xrotation Yrotation Zrotation
									JOINT mixamorig:RightHandRing2
									{
										OFFSET -3.235790 -0.462120 -1.101476
										CHANNELS 3 Xrotation Yrotation Zrotation
										JOINT mixamorig:RightHandRing3
										{
											OFFSET -3.179264 -0.138618 -1.084847
											CHANNELS 3 Xrotation Yrotation Zrotation
											JOINT mixamorig:RightHandRing4
											{
												OFFSET -1.963291 -0.101624 -0.668250
												CHANNELS 3 Xrotation Yrotation Zrotation
												End Site
												{
													OFFSET -1.963745 -0.101669 -0.666919
												}
											}
										}
									}
								}
							}
						}
					}
				}
			}
		}
	}
	JOINT mixamorig:LeftUpLeg
	{
		OFFSET 10.205382 -3.823519 0.155145
		CHANNELS 3 Xrotation Yrotation Zrotation
		JOINT mixamorig:LeftLeg
		{
			OFFSET 0.283732 -12.998343 0.567794
			CHANNELS 3 Xrotation Yrotation Zrotation
			JOINT mixamorig:LeftFoot
			{
				OFFSET -1.058953 -10.688869 -2.184322
				CHANNELS 3 Xrotation Yrotation Zrotation
				JOINT mixamorig:LeftToeBase
				{
					OFFSET 0.108145 -7.191069 7.560211
					CHANNELS 3 Xrotation Yrotation Zrotation
					JOINT mixamorig:LeftToe_End
					{
						OFFSET 0.070226 0.081726 4.490266
						CHANNELS 3 Xrotation Yrotation Zrotation
						End Site
						{
							OFFSET 0.070226 0.081726 4.490267
						}
					}
				}
			}
		}
	}
	JOINT mixamorig:RightUpLeg
	{
		OFFSET -10.205383 -3.823513 0.005508
		CHANNELS 3 Xrotation Yrotation Zrotation
		JOINT mixamorig:RightLeg
		{
			OFFSET -0.283728 -12.998341 0.610627
			CHANNELS 3 Xrotation Yrotation Zrotation
			JOINT mixamorig:RightFoot
			{
				OFFSET 1.058956 -10.688892 -1.945833
				CHANNELS 3 Xrotation Yrotation Zrotation
				JOINT mixamorig:RightToeBase
				{
					OFFSET -0.108150 -7.191040 7.372945
					CHANNELS 3 Xrotation Yrotation Zrotation
					JOINT mixamorig:RightToe_End
					{
						OFFSET -0.070229 0.081738 4.479398
						CHANNELS 3 Xrotation Yrotation Zrotation
						End Site
						{
							OFFSET -0.070229 0.081738 4.479399
						}
					}
				}
			}
		}
	}
}
MOTION
Frames: 4
Frame Time: 0.016667
-0.810262 25.586782 -0.000148 13.839748 2.513978 -1.146692 14.692647 -2.369938 5.716676 5.508356 -0.089066 0.319985 5.507987 -0.130543 0.316223 -0.396754 0.386388 0.109285 -31.179342 3.925789 -3.315685 0.000001 -0.000000 0.000000 3.193067 -10.745626 28.575240 -66.573157 -29.246904 -9.551925 -5.752430 -45.281893 -10.691954 16.442854 -12.850548 21.999071 16.279887 18.568848 5.781606 1.602369 37.280211 11.531255 -2.289506 -13.278995 -6.237949 -0.000001 0.000003 0.000001 0.251897 18.951198 0.640688 0.541575 0.511206 -1.133013 5.499877 0.561627 -11.876162 0.000003 -0.000000 0.000001 0.001341 -0.893256 3.331147 -0.110752 1.318668 -12.633893 -0.519934 1.595679 -24.714637 -0.000000 -0.000002 -0.000000 -0.323426 -7.094252 -2.872829 -4.170881 3.164431 -16.873286 1.202482 2.272959 3.186519 -0.000001 0.000003 0.000001 -2.624608 -15.379482 -9.583527 39.510469 -12.627893 62.763674 -0.147014 -0.117580 8.370430 8.515854 2.470403 -1.416773 5.014534 -19.367490 -12.480445 -0.062502 -36.107597 -13.799756 1.603842 14.152295 7.697698 -0.000002 0.000001 -0.000001 3.871722 -15.407150 9.973659 3.691231 -0.873118 9.823254 0.809190 0.081904 2.251581 -0.000003 -0.000003 -0.000001 -0.765537 2.561183 14.354136 -0.110127 -2.321925 16.108023 -1.123591 -0.794534 11.794780 -0.000001 -0.000001 0.000002 -5.917142 14.194656 17.063069 -7.267054 -5.738166 25.486347 -3.512057 -2.195636 8.312746 -0.000000 0.000001 -0.000001 40.901082 4.362352 -3.795489 -5.916800 0.816466 2.903152 -42.661659 3.298388 -3.749980 -13.025639 -0.000034 0.000005 0.000001 0.000000 0.000000 -73.369885 -3.535985 -1.277289 8.803173 5.908887 -3.530626 50.391080 5.001345 4.936409 -2.291817 -0.000005 0.000009 -0.000000 -0.000001 0.000000 
-0.844760 25.423649 -0.496489 13.511124 2.768986 -1.106618 15.858796 -2.286501 5.778253 5.328289 -0.088109 0.264780 5.327807 -0.127240 0.261653 -0.396644 0.309956 0.087668 -31.656301 3.449382 -3.200843 -0.000000 0.000000 0.000000 2.951221 -10.068422 28.891465 -68.735452 -29.876641 -9.302765 -5.648852 -44.738152 -10.618145 16.793917 -12.428828 22.022552 16.279886 18.568851 5.781602 1.602367 37.280207 11.531262 -2.289508 -13.278996 -6.237952 -0.000003 -0.000001 -0.000000 0.229256 18.941935 0.703958 0.528810 0.506957 -1.105756 5.308065 0.533303 -11.469243 -0.000001 -0.000000 -0.000003 0.000231 -0.902445 3.388862 -0.111212 1.313400 -12.601907 -0.521629 1.543756 -24.415008 0.000001 0.000001 -0.000003 -0.318262 -7.103754 -2.814737 -4.164464 3.156518 -16.842925 1.233999 2.250858 3.321203 -0.000000 0.000001 -0.000001 -2.657811 -15.273423 -9.885692 40.122334 -13.643547 63.607284 -0.084064 -0.785260 8.370383 9.237062 1.857797 -1.990562 5.014532 -19.367486 -12.480444 -0.062509 -36.107597 -13.799753 1.603839 14.152298 7.697699 0.000002 0.000001 -0.000001 4.063408 -15.456484 10.615956 3.685990 -0.872134 9.809526 0.776393 0.092883 2.161877 -0.000001 0.000001 0.000000 -0.771465 2.464449 14.946088 -0.109781 -2.325219 16.129191 -1.126036 -0.782095 11.720777 -0.000001 0.000001 0.000001 -6.043040 14.044584 17.661290 -7.271390 -5.744555 25.505870 -3.502300 -2.185928 8.273459 0.000001 -0.000006 0.000004 44.225010 3.493170 -4.096059 -13.946137 1.143999 3.308718 -41.053200 3.087305 -3.655690 -9.759919 -0.000034 0.000009 -0.000001 -0.000001 -0.000000 -74.474354 -2.482869 -1.363960 11.237666 3.680641 -3.609572 49.486507 4.762098 4.072765 -2.699710 -0.000002 0.000008 -0.000000 -0.000001 -0.000000 
-0.856448 25.352856 -0.962335 13.284238 2.965806 -1.025095 16.960372 -2.129783 5.793361 5.120814 -0.087613 0.215523 5.120274 -0.124517 0.213004 -0.396534 0.227159 0.064251 -32.114139 2.962303 -3.134146 -0.000000 -0.000000 -0.000000 2.753807 -9.524527 29.120061 -70.890042 -30.233952 -9.261649 -5.628217 -44.628569 -10.603513 17.028348 -12.102212 21.980648 16.279884 18.568844 5.781607 1.602369 37.280214 11.531257 -2.289505 -13.278997 -6.237947 0.000002 -0.000001 -0.000001 0.057528 18.870628 1.184647 0.644929 0.545267 -1.353613 5.087205 0.498966 -11.000313 -0.000002 -0.000000 0.000000 -0.008000 -0.972376 3.827517 -0.107736 1.351877 -12.835583 -0.522959 1.495650 -24.137318 0.000002 -0.000000 0.000002 -0.278768 -7.175928 -2.373082 -4.211395 3.214497 -17.065040 1.242242 2.245108 3.356330 0.000000 0.000003 -0.000002 -2.661024 -15.034643 -10.158847 40.882309 -14.556024 64.700032 -0.031533 -1.342553 8.370925 9.735199 1.182130 -2.643287 5.014537 -19.367488 -12.480443 -0.062510 -36.107604 -13.799753 1.603842 14.152298 7.697697 0.000002 0.000001 0.000000 4.287728 -15.511401 11.365517 3.751342 -0.884186 9.979954 0.706192 0.116531 1.969784 0.000001 0.000001 -0.000000 -0.777117 2.351521 15.636480 -0.106328 -2.358564 16.343492 -1.131505 -0.764237 11.613059 -0.000001 -0.000001 -0.000001 -6.187765 13.867938 18.358157 -7.315081 -5.809424 25.703600 -3.508697 -2.187425 8.272291 0.000000 -0.000001 -0.000000 43.754018 3.481420 -4.290841 -13.949225 0.960010 3.514951 -42.631107 3.059383 -3.503540 -6.987513 -0.000019 0.000013 -0.000002 -0.000001 -0.000000 -76.192331 -1.668675 -1.492644 15.904025 1.457830 -3.479631 46.853114 4.324969 2.955435 -3.002016 -0.000006 0.000007 0.000000 0.000000 -0.000000 
-0.830009 25.448250 -1.402972 13.163122 3.075723 -0.870821 17.996814 -1.869384 5.713300 4.887511 -0.087636 0.172505 4.886869 -0.122431 0.170550 -0.396447 0.135688 0.038378 -32.571133 2.451074 -3.111970 0.000000 0.000000 0.000000 2.606768 -9.125464 29.282281 -73.050048 -30.300946 -9.362927 -5.687169 -44.940527 -10.645383 17.147031 -11.891002 21.847912 16.279889 18.568841 5.781604 1.602366 37.280211 11.531257 -2.289502 -13.279000 -6.237951 0.000000 -0.000003 -0.000000 -0.192958 18.763648 1.888693 0.840241 0.608484 -1.769941 4.856894 0.461162 -10.510819 -0.000002 -0.000000 0.000000 -0.019083 -1.074971 4.470712 -0.101436 1.417351 -13.233472 -0.523974 1.451954 -23.885221 0.000004 -0.000000 -0.000000 -0.219826 -7.281200 -1.725264 -4.290779 3.313611 -17.443055 1.235044 2.250138 3.325624 -0.000005 -0.000001 -0.000002 -2.635666 -14.664027 -10.413309 41.781206 -15.335185 66.059766 0.010149 -1.784256 8.371699 10.030711 0.426228 -3.374179 5.014535 -19.367491 -12.480444 -0.062508 -36.107597 -13.799753 1.603841 14.152295 7.697697 -0.000000 0.000003 0.000000 4.573122 -15.576902 12.315955 3.859772 -0.903723 10.262411 0.611661 0.148815 1.710799 0.000002 0.000001 0.000001 -0.782295 2.208347 16.511287 -0.100613 -2.411296 16.682681 -1.138930 -0.742251 11.479922 0.000002 -0.000001 0.000001 -6.367773 13.641664 19.239806 -7.383764 -5.912367 26.016442 -3.523990 -2.194981 8.291429 0.000002 -0.000002 0.000000 35.834669 4.348693 -3.845856 1.820384 -0.145761 2.773075 -50.552740 3.288755 -2.249919 -5.186133 -0.000025 0.000011 -0.000000 -0.000000 0.000000 -77.575185 -1.312327 -1.636166 20.956714 -0.103192 -3.217820 43.357979 3.714187 1.937880 -3.236585 -0.000003 0.000008 0.000000 -0.000000 0.000000 
